PathFileType	4	(X/Y/Z)	Patient4_TMGait_0pt2_02_right_10.trc.trc
DataRate	CameraRate	NumFrames	NumMarkers	Units	OrigDataRate	OrigDataStartFrame	OrigNumFrames
38.997214484680	38.997214484680	5	33	mm	38.997214484680	36	       141
Frame#	Time	R.Midfoot.Superior			Sacral			L.Shoulder			Chest			R.Shoulder			Neck			R.ASIS			L.ASIS			R.Thigh.Superior			R.Thigh.Lateral			R.Thigh.Inferior			R.Patella			L.Thigh.Superior			L.Thigh.Lateral			L.Thigh.Inferior			L.Patella			L.Shank.Superior			L.Shank.Lateral			L.Shank.Inferior			R.Shank.Superior			R.Shank.Lateral			R.Shank.Inferior			R.Heel			R.Midfoot.Lateral			R.Toe			L.Heel			L.Midfoot.Lateral			L.Midfoot.Superior			L.Toe			L.Elbow			L.Wrist			R.Elbow			R.Wrist			
		X1	Y1	Z1	X2	Y2	Z2	X3	Y3	Z3	X4	Y4	Z4	X5	Y5	Z5	X6	Y6	Z6	X7	Y7	Z7	X8	Y8	Z8	X9	Y9	Z9	X10	Y10	Z10	X11	Y11	Z11	X12	Y12	Z12	X13	Y13	Z13	X14	Y14	Z14	X15	Y15	Z15	X16	Y16	Z16	X17	Y17	Z17	X18	Y18	Z18	X19	Y19	Z19	X20	Y20	Z20	X21	Y21	Z21	X22	Y22	Z22	X23	Y23	Z23	X24	Y24	Z24	X25	Y25	Z25	X26	Y26	Z26	X27	Y27	Z27	X28	Y28	Z28	X29	Y29	Z29	X30	Y30	Z30	X31	Y31	Z31	X32	Y32	Z32	X33	Y33	Z33	

36	22.427500000000	1062.030247963645	97.034321519382	603.331755336754	799.479288269393	1011.889245727348	540.627001296275	1026.568194247628	1416.014057280941	353.059662544320	1120.075537281065	1343.743245732323	517.105655375069	1045.110033377942	1433.674426268583	686.367896225028	1005.199358746047	1482.809718855688	513.455625155910	1024.870616563068	922.422056757147	652.633940447767	1009.046700911601	955.129370440704	380.334936538839	1081.696200827510	744.775531878981	604.877894631356	1023.294433475376	622.867595056952	668.828627747383	1102.161144625422	582.207735406710	582.139918591443	1116.591954273290	489.017385747333	588.061810095275	1031.724551018681	732.098196666262	401.676909573156	931.497750521514	627.500572659153	333.508697169219	1005.171252114935	538.436444046731	394.977560486379	997.499590537212	464.951345790488	396.969852040661	950.120016709522	402.585270980008	384.440679591617	835.607186632760	316.128507731541	324.895566541073	860.142797885462	190.092558540836	385.606415204637	1080.041027921915	398.857988469209	595.808438580453	1006.909103622189	299.523561829096	663.984449374690	1035.049599998674	203.017372589308	596.849071978059	888.046120324484	43.691543385581	580.568273453885	976.844354094051	37.257465834112	648.461997172105	1183.514616422350	45.406342865496	622.303651264897	704.467690312638	50.506185699188	413.467506521218	779.405242155004	41.827438152254	334.991682728155	867.295286345425	97.313435279635	363.478563928908	991.064560366264	37.617024289813	335.020532236706	1109.821441041088	1106.249858693035	190.201997021215	1366.220952551384	1057.195745782551	198.430753270025	905.458426172579	1125.453123001065	822.444847767522	898.906158941589	862.518027736849	828.980807470621	
37	22.453142857143	1057.243134358441	96.975355750873	603.637139830688	799.525138057230	1012.067997553721	548.988163670261	1024.681897211971	1416.374010313750	359.198272110292	1119.820454359526	1343.876155211810	522.187526134145	1046.410835829779	1433.601343562327	692.243340515015	1005.074070607187	1483.058436922524	519.781931775429	1026.035063897803	922.589646952898	658.800771775517	1007.568662342430	955.276561390981	386.835253412763	1081.472885205140	743.984851999007	610.672670816004	1021.876096681396	622.206596809516	673.951134161295	1100.150889600164	581.462508535641	586.838220714563	1113.661641517349	488.247247667711	592.084418209266	1032.010360739295	733.413624284104	406.719111523026	932.661822794551	628.243320344665	338.069154237702	1008.239900085928	539.299105165362	398.050349343684	1001.028040789406	464.828254892530	399.165560488065	952.026246446542	403.201049996374	387.011432233448	835.360648165891	319.859941529060	327.724831788473	858.043765734581	192.885436023427	387.033236170214	1076.702003460434	398.206081437860	599.059485026969	1003.096493851451	298.555699126531	666.368624953997	1030.900385562316	202.636858125366	598.255048087188	883.168169200871	43.509824064752	580.674348008858	971.975853303570	37.122226514209	648.573236077233	1178.699844855093	45.310786476854	622.446728081026	699.874193575765	56.731404405392	414.317234057117	774.328087835230	46.057367877618	335.776652413522	863.470610700078	99.302035306889	363.983066367737	985.319188805917	37.027096017306	335.395896314959	1098.239156439461	1101.651247611988	197.860330596018	1351.408460696209	1037.587408110379	204.713965112290	916.072268567775	1121.439411712810	830.840561564783	917.962500375706	858.555243452706	838.404510383477	
38	22.478785714286	1052.438340247023	96.935856185100	603.964021590837	799.325986258717	1012.032130792267	556.953218384559	1022.301114060546	1416.695490590415	365.049444072936	1119.119595440865	1344.028489607470	526.955712969391	1047.213000787084	1433.417010273112	697.843691547988	1004.446078860325	1483.240687870398	525.823904011223	1026.943428561181	922.730622351031	664.670447463260	1006.047784533719	955.420993895505	392.966833800412	1081.127022319188	743.127112384408	616.393001124553	1020.290189947752	621.514378169171	678.956432431291	1098.090842011874	580.679743795168	591.521067502850	1110.693805004398	487.447947822574	596.157105638889	1033.207778177109	735.160307038721	411.764159337549	935.535064490286	628.909131470770	342.575939031803	1013.399133280935	540.491901808060	401.215546367607	1006.820390438239	464.758243968060	401.321378364761	955.831079846719	403.835445448945	389.639044807782	836.636773811956	324.379935001102	330.788019098839	856.667396502039	196.512084506591	388.692577419827	1073.288388060079	397.539662692315	602.371636394937	999.118986001751	297.634002532507	668.784922523251	1026.673123756808	202.291318457890	599.740090124263	878.247565947320	43.350609919081	580.788782699824	967.065857429310	37.006213208059	648.693669074467	1173.821086638682	45.278700152683	622.566593444698	695.368741454628	64.993537665491	415.651159978704	769.049596817791	51.980925455815	336.894913922821	859.721714962342	102.246918352014	364.713870609892	979.004470346589	36.617905525383	335.735747773293	1085.317902239659	1096.956706486843	205.735027931787	1333.497665927807	1016.015922600173	210.935469488569	927.838065368747	1116.833195600054	838.476774917187	939.413617610242	854.340503742993	846.603070989682	
39	22.504428571429	1047.590740758133	96.910964593192	604.305324134823	798.917982433036	1011.711195654423	564.432127490738	1019.417687314749	1416.966654177016	370.588105633611	1117.942607006928	1344.208302714886	531.409293950841	1047.433965577822	1433.097481916332	703.164726159482	1003.255696445964	1483.327853781415	531.567645023766	1027.621516836966	922.836626596857	670.222933202515	1004.540516592037	955.507840870916	398.737794119071	1080.749345711874	742.209505093880	621.994807791698	1018.667523223322	620.772014742336	683.781646024293	1096.129989907245	579.856867235682	596.127405565392	1107.859229152635	486.586817193497	600.210549520037	1035.383499086976	737.278863314085	416.857848386643	940.208570350368	629.494179013883	347.009158305738	1020.645859402001	542.007880099786	404.522273630462	1014.851634141299	464.767106033195	403.471551951428	961.540566627831	404.482835053272	392.295640590527	839.475776065171	329.689427814631	334.063247582118	856.046673367038	200.985424491164	390.548862711951	1069.929492795665	396.828773351022	605.676456908868	995.077562587231	296.764678163532	671.182637525123	1022.397197703989	201.959054574143	601.263170816054	873.258725958554	43.226019093679	580.911497310696	962.088656111228	36.914992993178	648.826737936919	1168.860101017583	45.285382493029	622.669789463208	691.030532460798	75.305832481621	417.493388713509	763.612307257470	59.694562263545	338.332609828496	856.065294733833	106.241150349026	365.636695324805	972.113814005582	36.513695357148	335.911300578621	1071.131543690293	1092.281453236688	213.818911824848	1312.155895706002	992.858095452884	217.050945624300	940.659590995342	1111.735539802171	845.200844639822	963.149865582169	850.123177244426	853.353027255764	
40	22.530071428571	1042.692998088021	96.896344549079	604.650178838822	798.353406294908	1011.046541703357	571.356864751587	1016.056204056712	1417.166552974951	375.794200408412	1116.289960182059	1344.411878608389	535.552918655805	1047.031566507886	1432.624646813378	708.201805465069	1001.479895745615	1483.289148594056	537.002825099553	1028.110368061641	922.894796391605	675.449440287419	1003.102210803098	955.477549230333	404.164980107570	1080.428957288988	741.235151729807	627.421870511418	1017.143914463215	619.954304055318	688.360060136058	1094.406843822417	578.987096170655	600.579733293594	1105.319139803219	485.630727477438	604.155150675768	1038.490965461786	739.665559577327	422.019511216990	946.581831603450	630.008190751173	351.322321151994	1029.748633107686	543.813846611120	407.982444630467	1024.857145630301	464.886103442065	405.622603403894	968.969928183047	405.146929831818	394.910492373289	843.770358129442	335.699235510824	337.483103419419	856.182914282211	206.222413021378	392.511508752900	1066.753819088552	396.044280619891	608.887907629529	991.085941647807	295.948005656631	673.499203499808	1018.115761638145	201.617658082617	602.771960190071	868.196925030736	43.144871467147	581.041020491549	957.039620436929	36.851795912122	648.972083216880	1163.818539285283	45.305172199613	622.761080128267	686.996150818627	87.420620558467	419.797365509773	758.143093751727	69.086281729376	340.015029425313	852.569209902586	111.262320489253	366.658275064151	964.769093951597	36.833177379358	335.750129789846	1055.802237932804	1087.737796198515	222.083808498545	1287.142740055930	968.625362132699	223.055376938518	954.385180806854	1106.296466408080	850.887978147810	988.972304696177	846.216135474346	858.479197095989	
